<?xml version="1.0" standalone="no"?>
<!DOCTYPE svg PUBLIC "-//W3C//DTD SVG 20010904//EN"
 "http://www.w3.org/TR/2001/REC-SVG-20010904/DTD/svg10.dtd">
<svg version="1.0" xmlns="http://www.w3.org/2000/svg"
 width="1200.000000pt" height="1200.000000pt" viewBox="0 0 1200.000000 1200.000000"
 preserveAspectRatio="xMidYMid meet">

<g transform="translate(0.000000,1200.000000) scale(0.100000,-0.100000)"
fill="#0f0" stroke="none">
<path d="M4780 7300 l0 -510 70 0 70 0 0 510 0 510 -70 0 -70 0 0 -510z"/>
<path d="M6880 7300 l0 -510 70 0 70 0 0 510 0 510 -70 0 -70 0 0 -510z"/>
<path d="M2570 7785 c-8 -2 -54 -9 -102 -15 l-88 -12 0 -484 0 -484 70 0 70 0
0 439 0 439 31 6 c17 3 64 6 104 6 260 0 395 -132 396 -390 1 -243 -124 -409
-309 -410 -72 0 -123 -19 -146 -55 -15 -22 -14 -24 16 -34 54 -19 159 -24 223
-11 264 54 423 335 360 635 -39 181 -155 301 -342 350 -54 15 -249 29 -283 20z"/>
<path d="M6218 7777 c-66 -19 -125 -63 -156 -116 -23 -39 -27 -58 -27 -121 0
-64 4 -82 28 -122 32 -55 98 -107 212 -169 177 -95 210 -134 206 -241 -1 -38
-54 -93 -107 -114 -56 -21 -171 -14 -258 16 -33 11 -60 19 -61 18 -8 -12 -35
-91 -32 -95 12 -11 125 -44 188 -54 247 -38 434 88 416 281 -10 114 -64 175
-248 280 -172 98 -216 145 -206 223 6 42 35 80 79 103 34 17 123 18 205 1 l62
-13 19 47 20 47 -66 17 c-92 23 -216 28 -274 12z"/>
<path d="M3570 7494 c-53 -9 -140 -38 -140 -45 0 -5 7 -26 15 -47 l16 -39 52
14 c109 28 197 10 241 -50 19 -25 21 -46 24 -184 l4 -155 -29 -30 c-39 -42
-95 -68 -143 -68 -57 0 -100 42 -100 98 0 53 35 87 105 103 57 13 97 45 110
87 7 23 6 24 -52 16 -85 -10 -174 -37 -226 -67 -120 -70 -114 -241 11 -315 40
-23 58 -27 122 -27 82 0 134 20 179 69 l25 26 21 -42 c21 -42 22 -43 80 -46
l58 -3 -8 33 c-4 18 -10 137 -14 263 -5 173 -11 239 -23 265 -40 92 -117 140
-232 145 -39 2 -82 2 -96 -1z"/>
<path d="M4429 7477 c-24 -13 -58 -42 -76 -65 l-32 -42 -6 33 c-4 17 -14 44
-21 60 -13 25 -20 27 -70 27 -54 0 -56 -1 -49 -22 4 -13 10 -170 12 -350 l5
-328 64 0 64 0 0 178 c1 259 13 316 76 371 41 36 71 45 125 38 26 -3 39 -1 40
6 0 7 4 33 8 59 7 42 6 47 -13 52 -42 11 -84 6 -127 -17z"/>
<path d="M7180 7481 c-64 -20 -100 -41 -100 -57 0 -7 12 -19 26 -29 21 -14 39
-16 94 -10 61 6 70 5 89 -14 25 -25 23 -10 26 -311 2 -129 3 -243 4 -252 1
-15 11 -18 71 -18 l70 0 0 268 c0 302 -7 351 -60 396 -57 47 -129 56 -220 27z"/>
<path d="M7900 7494 c-53 -9 -140 -38 -140 -45 0 -5 7 -26 15 -47 l16 -39 52
14 c109 28 197 10 241 -50 19 -25 21 -46 24 -184 l4 -155 -29 -30 c-39 -42
-95 -68 -143 -68 -57 0 -100 42 -100 98 0 53 35 87 105 103 57 13 97 45 110
87 7 23 6 24 -52 16 -85 -10 -174 -37 -226 -67 -120 -70 -114 -241 11 -315 40
-23 58 -27 122 -27 82 0 134 20 179 69 l25 26 21 -42 c21 -42 22 -43 80 -46
l58 -3 -8 33 c-4 18 -10 137 -14 263 -5 173 -11 239 -23 265 -40 92 -117 140
-232 145 -39 2 -82 2 -96 -1z"/>
<path d="M8759 7477 c-24 -13 -58 -42 -76 -65 l-32 -42 -6 33 c-4 17 -14 44
-21 60 -13 25 -20 27 -70 27 -54 0 -56 -1 -49 -22 4 -13 10 -170 12 -350 l5
-328 64 0 64 0 0 178 c1 259 13 316 76 371 41 36 71 45 125 38 26 -3 39 -1 40
6 0 7 4 33 8 59 7 42 6 47 -13 52 -42 11 -84 6 -127 -17z"/>
<path d="M9323 7490 c-209 -42 -312 -300 -210 -524 31 -68 86 -122 156 -155
91 -43 259 -33 363 21 17 8 17 11 1 51 -9 23 -17 43 -19 45 -1 2 -32 -6 -69
-17 -72 -22 -148 -27 -189 -11 -48 18 -104 79 -123 133 -25 74 -22 192 7 252
76 157 290 129 290 -38 l0 -35 -101 -4 c-99 -3 -101 -3 -130 -36 -16 -18 -29
-37 -29 -42 0 -6 72 -10 190 -10 l189 0 10 38 c39 137 -39 288 -168 326 -59
17 -102 19 -168 6z"/>
<path d="M5131 7370 c-55 -66 -110 -138 -122 -162 -22 -44 -38 -151 -23 -161
5 -3 30 19 56 49 l46 53 92 -172 c50 -95 95 -176 99 -180 4 -4 42 -7 83 -5
l75 3 -129 220 c-70 121 -128 224 -128 229 0 5 47 59 105 121 58 62 105 116
105 119 0 3 -36 6 -79 6 l-80 0 -100 -120z"/>
<path d="M1200 6110 l0 -110 4800 0 4800 0 0 110 0 110 -4800 0 -4800 0 0
-110z"/>
<path d="M2350 5530 c-18 -50 -37 -93 -41 -96 -5 -3 -54 -8 -109 -11 -55 -3
-100 -9 -100 -13 0 -3 36 -35 80 -71 44 -35 80 -66 80 -69 0 -3 -11 -46 -25
-95 -14 -50 -25 -93 -25 -97 0 -16 21 -7 97 42 43 27 83 50 88 50 6 0 45 -23
88 -50 71 -45 97 -58 97 -46 0 3 -11 47 -25 98 -14 51 -25 96 -25 99 0 3 36
34 79 69 44 35 78 67 76 71 -3 3 -51 10 -108 14 l-103 7 -34 91 c-19 50 -40
92 -45 94 -6 2 -26 -38 -45 -87z"/>
<path d="M3250 5530 c-18 -50 -37 -93 -41 -96 -5 -3 -54 -8 -109 -11 -55 -3
-100 -9 -100 -13 0 -3 36 -35 80 -71 44 -35 80 -66 80 -69 0 -3 -11 -46 -25
-95 -14 -50 -25 -93 -25 -97 0 -16 21 -7 97 42 43 27 82 50 87 50 5 0 45 -22
88 -50 74 -47 98 -58 98 -44 0 3 -11 45 -25 94 -14 49 -25 93 -25 98 0 5 36
37 79 72 44 35 78 67 76 70 -3 4 -51 10 -107 14 -56 4 -103 8 -104 9 0 1 -16
42 -35 91 -19 49 -39 91 -44 93 -6 2 -26 -38 -45 -87z"/>
<path d="M4150 5530 c-18 -50 -37 -93 -41 -96 -5 -3 -54 -8 -109 -11 -55 -3
-100 -9 -100 -13 0 -3 36 -35 80 -71 44 -35 80 -66 80 -69 0 -3 -11 -46 -25
-95 -14 -50 -25 -93 -25 -97 0 -16 21 -7 97 42 43 27 82 50 87 50 5 0 45 -22
88 -50 74 -47 98 -58 98 -44 0 3 -11 45 -25 94 -14 49 -25 93 -25 98 0 5 36
37 79 72 44 35 78 67 76 70 -3 4 -51 10 -107 14 -56 4 -103 8 -104 9 0 1 -16
42 -35 91 -19 49 -39 91 -44 93 -6 2 -26 -38 -45 -87z"/>
<path d="M7750 5529 c-19 -50 -39 -93 -44 -94 -20 -7 -100 -14 -153 -14 -29
-1 -53 -5 -53 -9 0 -5 36 -37 80 -73 44 -35 80 -66 80 -69 0 -3 -11 -46 -25
-95 -14 -50 -25 -93 -25 -97 0 -16 21 -7 97 42 43 27 82 50 87 50 5 0 45 -22
88 -50 74 -47 98 -58 98 -44 0 3 -11 45 -25 94 -14 49 -25 93 -25 98 0 5 36
37 79 72 44 35 78 67 76 70 -3 4 -51 10 -107 14 -56 4 -103 8 -104 9 0 1 -16
42 -35 91 -19 49 -39 91 -44 93 -6 2 -26 -38 -45 -88z"/>
<path d="M8650 5530 c-18 -50 -37 -93 -41 -96 -5 -3 -54 -8 -109 -11 -55 -3
-100 -9 -100 -13 0 -3 36 -35 80 -71 44 -35 80 -66 80 -69 0 -3 -11 -46 -25
-95 -14 -50 -25 -93 -25 -97 0 -16 21 -7 97 42 43 27 82 50 87 50 5 0 45 -22
88 -50 74 -47 98 -58 98 -44 0 3 -11 45 -25 94 -14 49 -25 93 -25 98 0 5 36
37 79 72 44 35 78 67 76 70 -3 4 -51 10 -107 14 -56 4 -103 8 -104 9 0 1 -16
42 -35 91 -19 49 -39 91 -44 93 -6 2 -26 -38 -45 -87z"/>
<path d="M9550 5530 c-18 -50 -37 -93 -41 -96 -5 -3 -54 -8 -109 -11 -55 -3
-100 -9 -100 -13 0 -3 36 -35 80 -71 44 -35 80 -66 80 -69 0 -3 -11 -46 -25
-95 -14 -50 -25 -93 -25 -97 0 -16 21 -7 97 42 43 27 82 50 87 50 5 0 45 -22
88 -50 74 -47 98 -58 98 -44 0 3 -11 45 -25 94 -14 49 -25 93 -25 98 0 5 36
37 79 72 44 35 78 67 76 70 -3 4 -51 10 -107 14 -56 4 -103 8 -104 9 0 1 -16
42 -35 91 -19 49 -39 91 -44 93 -6 2 -26 -38 -45 -87z"/>
<path d="M5795 5495 c-158 -24 -346 -91 -435 -155 l-30 -21 0 -367 c1 -353 1
-369 23 -433 63 -185 234 -358 508 -515 62 -35 124 -64 137 -64 37 0 181 71
294 145 183 120 310 272 357 429 20 64 21 92 21 437 l0 369 -39 26 c-98 64
-294 131 -456 154 -94 13 -282 11 -380 -5z m500 -129 c55 -14 137 -44 183 -66
l82 -39 0 -335 c0 -330 0 -336 -24 -402 -14 -37 -41 -91 -61 -120 -69 -100
-226 -228 -362 -298 l-53 -26 0 95 0 95 -55 0 -55 0 0 -90 c0 -51 -4 -90 -10
-90 -13 0 -104 54 -180 108 -36 25 -104 85 -151 132 -66 66 -94 103 -125 164
l-39 80 -3 343 -3 342 71 36 c76 38 210 80 305 95 33 5 132 7 220 5 132 -3
178 -8 260 -29z"/>
<path d="M5632 5204 c-44 -22 -100 -75 -126 -121 -3 -6 20 4 51 23 90 54 121
60 175 36 32 -14 58 -37 87 -76 33 -45 47 -56 69 -56 67 0 70 58 7 128 -82 91
-169 113 -263 66z"/>
<path d="M6192 5209 c-49 -25 -132 -113 -132 -141 0 -35 19 -58 49 -58 24 0
39 12 81 66 93 118 159 128 260 37 27 -24 50 -42 50 -39 0 14 -40 82 -61 105
-51 54 -168 69 -247 30z"/>
<path d="M5593 4980 c-18 -11 -33 -24 -33 -30 0 -6 15 -19 33 -30 47 -29 149
-28 200 3 36 22 37 24 20 39 -47 43 -165 52 -220 18z"/>
<path d="M6207 4977 c-36 -22 -37 -24 -20 -39 34 -29 62 -38 125 -38 46 0 72
6 96 20 40 24 38 39 -9 62 -51 27 -144 24 -192 -5z"/>
<path d="M5585 4614 c16 -27 52 -87 80 -134 l51 -85 114 -3 c111 -3 114 -2
142 25 l28 27 28 -27 c28 -27 31 -28 142 -25 l114 3 51 85 c28 47 64 107 80
134 l29 49 -109 -81 c-136 -103 -149 -104 -225 -27 -53 54 -56 55 -110 55 -54
0 -57 -1 -110 -55 -76 -77 -89 -76 -225 27 l-109 81 29 -49z"/>
</g>
</svg>
